<?xml version="1.0" standalone="no"?><!DOCTYPE svg PUBLIC "-//W3C//DTD SVG 1.1//EN" "http://www.w3.org/Graphics/SVG/1.1/DTD/svg11.dtd"><svg t="1664786629295" class="icon" viewBox="0 0 1024 1024" version="1.1" xmlns="http://www.w3.org/2000/svg" p-id="1936" xmlns:xlink="http://www.w3.org/1999/xlink" width="200" height="200"><path d="M512 427m-360 0a360 360 0 1 0 720 0 360 360 0 1 0-720 0Z" fill="#F6EABD" p-id="1937"></path><path d="M543.8 726.4l17.8-8.1c122-55.6 176-199.7 120.4-321.9l-60.4-132.9C566.1 141.3 422.2 87.3 300.1 142.9l-17.8 8.1c-122 55.6-176 199.7-120.4 321.9l60.4 132.9C277.8 728 421.7 782 543.8 726.4" fill="#FFFFFE" p-id="1938"></path><path d="M200.8 517.6a267.5 348.9 0 1 0 535 0 267.5 348.9 0 1 0-535 0Z" fill="#FFDA44" p-id="1939"></path><path d="M505.6 597.4c-6.8 0-13.2-3.9-16.2-10.4-4.1-9-0.1-19.5 8.8-23.6l14.4-6.6c8.9-4.1 19.5-0.1 23.6 8.8 4.1 9 0.1 19.5-8.8 23.6l-14.4 6.6c-2.4 1.1-5 1.6-7.4 1.6M398.8 729.2c-6.8 0-13.2-3.9-16.2-10.4-4.1-9-0.1-19.5 8.8-23.6l14.4-6.6c9-4.1 19.5-0.1 23.6 8.8 4.1 9 0.1 19.5-8.8 23.6l-14.4 6.6c-2.4 1.1-4.9 1.6-7.4 1.6M519.3 416.8c-6.8 0-13.2-3.9-16.2-10.4-4.1-9-0.1-19.5 8.8-23.6l14.4-6.6c9-4.1 19.5-0.1 23.6 8.8 4.1 9 0.1 19.5-8.8 23.6l-14.4 6.6c-2.4 1.1-5 1.6-7.4 1.6M385.8 535.2c-6.8 0-13.2-3.9-16.2-10.4-4.1-9-0.1-19.5 8.8-23.6l14.4-6.6c9-4.1 19.5-0.1 23.6 8.8 4.1 9 0.1 19.5-8.8 23.6l-14.4 6.6c-2.4 1.1-4.9 1.6-7.4 1.6M253.8 596.2c-6.8 0-13.3-3.9-16.2-10.5-4.1-9-0.1-19.5 8.8-23.6l14.4-6.6c9-4.1 19.5-0.1 23.6 8.8 4.1 9 0.1 19.5-8.8 23.6l-14.4 6.6c-2.4 1.2-4.9 1.7-7.4 1.7M398.8 354.2c-6.8 0-13.2-3.9-16.2-10.5-4.1-9-0.1-19.5 8.8-23.6l14.4-6.6c9-4.1 19.5-0.1 23.6 8.8 4.1 9 0.1 19.5-8.8 23.6l-14.4 6.6c-2.4 1.2-4.9 1.7-7.4 1.7M240.8 426.2c-6.8 0-13.2-3.9-16.2-10.5-4.1-9-0.1-19.5 8.8-23.6l14.4-6.6c9-4.1 19.5-0.1 23.6 8.8 4.1 9 0.1 19.5-8.8 23.6l-14.4 6.6c-2.4 1.2-4.9 1.7-7.4 1.7" fill="#FFFFFF" p-id="1940"></path><path d="M618.8 761.2l-7.9 6.1 2.2 9.8c4.6 20.7-2.8 39.9-18.1 46.7s-34.5-0.6-46.8-17.8l-5.8-8.1-9.8 1.8C409.8 822.4 274 733.8 209.6 589s-39.4-305 59.6-380.9l7.9-6.1-2.2-9.8c-4.6-20.7 2.8-39.9 18.1-46.7 15.2-6.8 34.5 0.6 46.8 17.8l5.8 8.1 9.8-1.8c83.9-15.6 176.8 20.9 248.6 97.7l23-21.4c-76.6-81.8-176.1-122-268-108.6-21.3-23.7-52.5-32.1-78.8-20.4s-40.9 40.5-37.6 72.2c-104.3 86.7-130.5 258.3-61.8 412.6s213.8 249.6 348 230.2c21.3 23.7 52.5 32.1 78.8 20.4 26.3-11.7 40.9-40.5 37.6-72.2 46-38.2 77.7-93.2 92-159.7l-30.7-6.5c-13.4 62.7-43.8 113.6-87.7 147.3z" fill="#333333" p-id="1941"></path><path d="M645.5 490.5m-246.5 0a246.5 246.5 0 1 0 493 0 246.5 246.5 0 1 0-493 0Z" fill="#FFFFFF" p-id="1942"></path><path d="M728 798v-21c0-6.6 5.4-12 12-12s12 5.4 12 12v80c0-6.6-5.4-12-12-12s-12 5.4-12 12v31c0 7.7-6.3 14-14 14s-14-6.3-14-14v-90c0-7.7 6.3-14 14-14s14 6.3 14 14zM766 744c7.7 0 14 6.3 14 14v150c0 7.7-6.3 14-14 14s-14-6.3-14-14V758c0-7.7 6.3-14 14-14z" fill="#FFDA44" p-id="1943"></path><path d="M768 942m-14 0a14 14 0 1 0 28 0 14 14 0 1 0-28 0Z" fill="#FFDA44" p-id="1944"></path><path d="M727 587m-233 0a233 233 0 1 0 466 0 233 233 0 1 0-466 0Z" fill="#FFDA44" p-id="1945"></path><path d="M660.5 483.5m-217.5 0a217.5 217.5 0 1 0 435 0 217.5 217.5 0 1 0-435 0Z" fill="#F8E71C" p-id="1946"></path><path d="M642.5 742C499.7 742 384 626.3 384 483.5S499.7 225 642.5 225 901 340.7 901 483.5 785.3 742 642.5 742z m0.5-31c125.4 0 227-101.6 227-227S768.4 257 643 257 416 358.6 416 484s101.6 227 227 227z" fill="#333333" p-id="1947"></path><path d="M701.5 802C558.7 802 443 686.3 443 543.5S558.7 285 701.5 285c55.2 0 106.3 17.3 148.3 46.8C916.5 378.5 960 455.9 960 543.5 960 686.3 844.3 802 701.5 802z m0.5-31c125.4 0 227-101.6 227-227 0-43.9-12.5-85-34.1-119.7C854.8 359.9 783.4 317 702 317 576.6 317 475 418.6 475 544c0 79.2 40.6 148.9 102.1 189.6C612.9 757.2 655.8 771 702 771z" fill="#333333" p-id="1948"></path><path d="M657.3 416.4c-0.4 0.3-0.9 0.3-1.3 0-6.6-5.9-11.3-12.7-13.8-20.4-4-12 6.5-21 14.5-21s18.5 9 14.5 21c-2.7 7.7-7.3 14.6-13.9 20.4z m53.4 17.8c-0.5 0-1-0.3-1.1-0.8-1.9-8.7-1.7-16.9 0.8-24.7 3.8-12.1 17.6-13.2 24.1-8.5 6.5 4.7 9.7 18.2-0.6 25.5-6.7 4.9-14.4 7.7-23.2 8.5z m32.7 45.8c-0.4-0.3-0.6-0.8-0.4-1.3 3.5-8.1 8.6-14.6 15.1-19.5 10.2-7.5 22-0.3 24.5 7.3s-2.8 20.4-15.5 20.3c-8.1 0-16-2.3-23.7-6.8z m-0.4 56.3c-0.2-0.5 0-1 0.4-1.3 7.6-4.5 15.5-6.8 23.7-6.8 12.6-0.1 18 12.7 15.5 20.3s-14.3 14.8-24.5 7.3c-6.5-4.9-11.5-11.4-15.1-19.5z m-33.4 45.3c0.1-0.5 0.6-0.8 1.1-0.8 8.8 0.8 16.6 3.6 23.2 8.4 10.3 7.4 7.1 20.8 0.6 25.5-6.5 4.7-20.3 3.6-24.1-8.5-2.5-7.8-2.7-16-0.8-24.6z m-53.7 17c0.4-0.3 0.9-0.3 1.3 0 6.6 5.9 11.3 12.7 13.8 20.4 4 12-6.5 21-14.5 21s-18.5-9-14.5-21c2.7-7.7 7.3-14.6 13.9-20.4z m-53.4-17.8c0.5 0 1 0.3 1.1 0.8 1.9 8.7 1.7 16.9-0.8 24.7-3.8 12.1-17.6 13.2-24.1 8.5-6.5-4.7-9.7-18.2 0.6-25.5 6.7-4.9 14.4-7.7 23.2-8.5zM569.8 535c0.4 0.3 0.6 0.8 0.4 1.3-3.5 8.1-8.6 14.6-15.1 19.5-10.2 7.5-22 0.3-24.5-7.3s2.8-20.4 15.5-20.3c8.1 0 16 2.3 23.7 6.8z m0.4-56.3c0.2 0.5 0 1-0.4 1.3-7.6 4.5-15.5 6.8-23.7 6.8-12.6 0.1-18-12.7-15.5-20.3 2.5-7.6 14.3-14.8 24.5-7.3 6.5 4.9 11.6 11.4 15.1 19.5z m33.4-45.3c-0.1 0.5-0.6 0.8-1.1 0.8-8.8-0.8-16.6-3.6-23.2-8.4-10.3-7.4-7.1-20.8-0.6-25.5 6.5-4.7 20.3-3.6 24.1 8.5 2.5 7.8 2.7 16 0.8 24.6z" fill="#FFFFFF" p-id="1949"></path><path d="M701.5 802C558.7 802 443 686.3 443 543.5S558.7 285 701.5 285c55.2 0 106.3 17.3 148.3 46.8C916.5 378.5 960 455.9 960 543.5 960 686.3 844.3 802 701.5 802z m0.5-31c125.4 0 227-101.6 227-227 0-43.9-12.5-85-34.1-119.7C854.8 359.9 783.4 317 702 317c-125.4 0-227 101.6-227 227 0 79.2 40.6 148.9 102.1 189.6C612.9 757.2 655.8 771 702 771z" fill="#333333" p-id="1950"></path><path d="M108.9 158.2c-4.2 1.4-8 3.7-11.2 6.4 4.2 1.3 7.8 4.6 9.3 9 2.4 7.4-1.6 15.4-9 17.8-3.8 1.3-7.7 0.8-11-0.9 0.1 2.6 0.7 5.4 1.5 8 5.5 16.8 23.6 25.9 40.4 20.4s25.9-23.6 20.4-40.3-23.6-25.9-40.4-20.4z" fill="#FFF3C6" p-id="1951"></path><path d="M126.7 180.1c1.1 3.2 1.5 6.8 1 10.5-1.4 10.3-10 18.6-20.4 19.6-14.4 1.4-26.6-10.7-25.1-25.1 1-10.3 9-18.8 19.2-20.4 3.7-0.6 7.3-0.2 10.5 0.8 2.4 0.8 4.9 0.3 6.8-1.4l0.2-0.2c3.8-3.4 2.5-9.7-2.4-11.3-4.5-1.5-9.2-2.2-14.2-1.8-18.1 1.2-32.8 16-33.9 34.2-1.5 23.3 18.7 42.2 42.3 38.6 15.5-2.3 27.9-14.5 30.5-30 1-6.2 0.5-12.3-1.4-17.6-1.6-4.8-7.4-6.4-11.2-3-1.9 1.7-2.7 4.6-1.9 7.1z" fill="#FFDA44" p-id="1952"></path><path d="M840.2 156c-14 0-25.2 11.2-25.2 25.2s11.2 25.2 25.2 25.2 25.2-11.2 25.2-25.2-11.3-25.2-25.2-25.2z m0 34.4c-5 0-9.2-4.1-9.2-9.2s4.1-9.2 9.2-9.2c5 0 9.2 4.1 9.2 9.2s-4.2 9.2-9.2 9.2z" fill="#5C3290" p-id="1953"></path><path d="M822.7 877.9h16c3.2 0 5.7 2.5 5.7 5.7s-2.5 5.7-5.7 5.7h-16c-3.2 0-5.7-2.5-5.7-5.7 0-3.1 2.5-5.7 5.7-5.7z m20.2 30.2v-16c0-3.2 2.5-5.7 5.7-5.7s5.7 2.5 5.7 5.7v16c0 3.2-2.5 5.7-5.7 5.7s-5.7-2.5-5.7-5.7z m30.2-20.1h-16c-3.2 0-5.7-2.5-5.7-5.7s2.5-5.7 5.7-5.7h16c3.2 0 5.7 2.5 5.7 5.7 0.1 3.1-2.5 5.7-5.7 5.7zM853 857.7v16c0 3.2-2.5 5.7-5.7 5.7s-5.7-2.5-5.7-5.7v-16c0-3.2 2.5-5.7 5.7-5.7 3 0 5.7 2.5 5.7 5.7z" fill="#AD98C7" p-id="1954"></path><path d="M175.4 764.9l-8.1-8.1c-1.8-1.8-1.8-4.7 0-6.5 1.8-1.8 4.7-1.8 6.5 0l8.1 8.1c1.8 1.8 1.8 4.7 0 6.5-1.8 1.8-4.7 1.8-6.5 0z m-1.4 13.9h-11.4c-2.5 0-4.6-2.1-4.6-4.6s2.1-4.6 4.6-4.6H174c2.5 0 4.6 2.1 4.6 4.6s-2 4.6-4.6 4.6z m8.9 10.8l-8.1 8.1c-1.8 1.8-4.7 1.8-6.5 0-1.8-1.8-1.8-4.7 0-6.5l8.1-8.1c1.8-1.8 4.7-1.8 6.5 0 1.8 1.8 1.8 4.7 0 6.5z m13.8 1.5v11.5c0 2.5-2.1 4.6-4.6 4.6-2.5 0-4.6-2.1-4.6-4.6v-11.5c0-2.5 2.1-4.6 4.6-4.6 2.6 0 4.6 2 4.6 4.6z m10.9-8.8l8.1 8.1c1.8 1.8 1.8 4.7 0 6.5-1.8 1.8-4.7 1.8-6.5 0l-8.1-8.1c-1.8-1.8-1.8-4.7 0-6.5 1.8-1.9 4.7-1.9 6.5 0z m1.4-14h11.5c2.5 0 4.6 2.1 4.6 4.6 0 2.5-2.1 4.6-4.6 4.6H209c-2.5 0-4.6-2.1-4.6-4.6 0-2.5 2.1-4.6 4.6-4.6z m-8.8-10.8l8.1-8.1c1.8-1.8 4.7-1.8 6.5 0 1.8 1.8 1.8 4.7 0 6.5l-8.1 8.1c-1.8 1.8-4.7 1.8-6.5 0-1.8-1.8-1.8-4.6 0-6.5z m-13.9-1.5v-11.5c0-2.5 2.1-4.6 4.6-4.6 2.5 0 4.6 2.1 4.6 4.6V756c0 2.5-2.1 4.6-4.6 4.6-2.5 0-4.6-1.9-4.6-4.6z" fill="#7BD721" p-id="1955"></path></svg>